simulation
nRows=56
nColumns=15
endheader
time  TH_x TH_y TH_z SC_y  SC_z  SC_x  AC_y  AC_z  AC_x  GH_y  GH_z  GH_yy  EL_x  PS_y
0.000000  0.000000  0.000000  0.000000  -25.085017  5.650132  4.328634  52.934749  8.552646  2.803178  17.894363  8.063267  28.518229  16.044613  68.912037
0.028283  0.000000  0.000000  0.000000  -24.989795  5.667820  4.180815  52.847119  8.519093  2.764299  18.364765  8.323678  28.094052  15.533454  68.268351
0.056566  0.000000  0.000000  0.000000  -24.956890  5.635010  3.981814  52.819910  8.546073  2.724982  18.639953  8.694453  27.699213  15.030700  67.962804
0.084848  0.000000  0.000000  0.000000  -24.973962  5.564425  3.726260  52.839324  8.641732  2.696753  18.735367  9.174819  27.333268  14.541426  67.952097
0.113131  0.000000  0.000000  0.000000  -25.028671  5.468786  3.434979  52.893866  8.793385  2.675027  18.666448  9.764002  26.995777  14.070705  68.192933
0.141414  0.000000  0.000000  0.000000  -25.108674  5.360816  3.131979  52.972342  8.985766  2.653320  18.448637  10.461226  26.686295  13.623609  68.642014
0.169697  0.000000  0.000000  0.000000  -25.201632  5.253237  2.837932  53.063320  9.206136  2.627370  18.097374  11.265719  26.404382  13.205212  69.256040
0.197980  0.000000  0.000000  0.000000  -25.295205  5.158771  2.574680  53.155591  9.440649  2.592443  17.628100  12.176707  26.149595  12.820587  69.991715
0.226263  0.000000  0.000000  0.000000  -25.377051  5.090140  2.350761  53.236729  9.685945  2.552146  17.056256  13.193414  25.921492  12.474807  70.805738
0.254545  0.000000  0.000000  0.000000  -25.434829  5.060067  2.200578  53.297037  9.917823  2.494565  16.397283  14.315069  25.719630  12.172946  71.654814
0.282828  0.000000  0.000000  0.000000  -25.456200  5.081274  2.133652  53.324428  10.131938  2.423009  15.666621  15.540896  25.543568  11.920078  72.495642
0.311111  0.000000  0.000000  0.000000  -25.429906  5.165522  2.174330  53.309181  10.312354  2.331362  14.880431  16.869433  25.390930  11.720836  73.286657
0.339394  0.000000  0.000000  0.000000  -25.362348  5.308934  2.325153  53.251108  10.465030  2.220595  14.066589  18.288007  25.227877  11.572715  74.014499
0.367677  0.000000  0.000000  0.000000  -25.274293  5.494910  2.584775  53.159209  10.602679  2.088975  13.262503  19.774826  24.994966  11.467401  74.688759
0.395960  0.000000  0.000000  0.000000  -25.186923  5.706479  2.946380  53.042197  10.742595  1.937843  12.505860  21.307831  24.632012  11.396411  75.319693
0.424242  0.000000  0.000000  0.000000  -25.121421  5.926671  3.403752  52.908923  10.901598  1.768211  11.834344  22.864964  24.078833  11.351261  75.917555
0.452525  0.000000  0.000000  0.000000  -25.098756  6.138660  3.958193  52.769223  11.090235  1.576590  11.285157  24.424331  23.276233  11.323469  76.492388
0.480808  0.000000  0.000000  0.000000  -25.129724  6.332519  4.593659  52.630723  11.322069  1.369997  10.872583  25.971710  22.211834  11.304589  77.044085
0.509091  0.000000  0.000000  0.000000  -25.210759  6.508051  5.306275  52.502108  11.585730  1.147601  10.578557  27.503721  20.939357  11.286222  77.558212
0.537374  0.000000  0.000000  0.000000  -25.337212  6.665797  6.070050  52.389264  11.886151  0.922401  10.382569  29.017800  19.517514  11.259977  78.019256
0.565657  0.000000  0.000000  0.000000  -25.504434  6.806299  6.874020  52.299767  12.216181  0.698262  10.264108  30.511384  18.005017  11.217460  78.411699
0.593939  0.000000  0.000000  0.000000  -25.707768  6.930096  7.704983  52.240761  12.570309  0.480591  10.202664  31.981908  16.460555  11.150290  78.720046
0.622222  0.000000  0.000000  0.000000  -25.939878  7.038279  8.544997  52.213752  12.947553  0.278585  10.177243  33.426472  14.933082  11.054899  78.935822
0.650505  0.000000  0.000000  0.000000  -26.186696  7.133311  9.413316  52.213276  13.319815  0.079744  10.165651  34.841333  13.447085  10.939812  79.068207
0.678788  0.000000  0.000000  0.000000  -26.433112  7.217867  10.290215  52.226410  13.690287  -0.103881  10.145503  36.222617  12.023269  10.815426  79.129112
0.707071  0.000000  0.000000  0.000000  -26.664016  7.294624  11.181265  52.243673  14.042319  -0.276363  10.094416  37.566450  10.682342  10.692136  79.130446
0.735354  0.000000  0.000000  0.000000  -26.864299  7.366257  12.092730  52.255669  14.358866  -0.442457  9.990006  38.868957  9.445006  10.580338  79.084117
0.763636  0.000000  0.000000  0.000000  -27.022185  7.435424  13.012801  52.252207  14.639746  -0.595265  9.814294  40.126539  8.328111  10.488981  79.004053
0.791919  0.000000  0.000000  0.000000  -27.141510  7.504698  13.951058  52.236324  14.879180  -0.739328  9.569938  41.336876  7.330423  10.420238  78.913627
0.820202  0.000000  0.000000  0.000000  -27.230684  7.576626  14.905470  52.212174  15.083814  -0.871131  9.265631  42.498025  6.445421  10.374297  78.838976
0.848485  0.000000  0.000000  0.000000  -27.298116  7.653756  15.877284  52.184460  15.257626  -0.989121  8.910071  43.608044  5.666581  10.351347  78.806239
0.876768  0.000000  0.000000  0.000000  -27.352213  7.738636  16.867637  52.157900  15.404599  -1.091550  8.511952  44.664989  4.987380  10.351576  78.841554
0.905051  0.000000  0.000000  0.000000  -27.400758  7.833431  17.878561  52.136980  15.527587  -1.177646  8.079928  45.666847  4.401872  10.374956  78.967053
0.933333  0.000000  0.000000  0.000000  -27.445829  7.936834  18.906434  52.121503  15.630750  -1.247807  7.622247  46.610977  3.909339  10.419484  79.168430
0.961616  0.000000  0.000000  0.000000  -27.486459  8.045683  19.948205  52.109353  15.716168  -1.305391  7.146945  47.494401  3.511857  10.482101  79.411923
0.989899  0.000000  0.000000  0.000000  -27.521656  8.156798  21.000574  52.098341  15.786130  -1.353656  6.662053  48.314138  3.211529  10.559741  79.663591
1.018182  0.000000  0.000000  0.000000  -27.550423  8.267002  22.058794  52.086018  15.844100  -1.394976  6.175605  49.067209  3.010458  10.649337  79.889492
1.046465  0.000000  0.000000  0.000000  -27.571906  8.373160  23.120207  52.070461  15.892171  -1.432559  5.694936  49.750385  2.910326  10.748243  80.057387
1.074747  0.000000  0.000000  0.000000  -27.588102  8.473079  24.195325  52.055353  15.926979  -1.467084  5.213159  50.355424  2.904291  10.862436  80.169753
1.103030  0.000000  0.000000  0.000000  -27.603673  8.565439  25.292630  52.047154  15.951263  -1.487597  4.710107  50.869397  2.977548  11.005945  80.261483
1.131313  0.000000  0.000000  0.000000  -27.623380  8.648957  26.428801  52.053959  15.961337  -1.487819  4.165107  51.279197  3.114989  11.193103  80.368710
1.159596  0.000000  0.000000  0.000000  -27.651985  8.722347  27.617785  52.083450  15.955506  -1.459536  3.557482  51.571717  3.301503  11.438245  80.527565
1.187879  0.000000  0.000000  0.000000  -27.694195  8.784336  28.883072  52.144998  15.924080  -1.400773  2.866985  51.734120  3.521960  11.755423  80.773795
1.216162  0.000000  0.000000  0.000000  -27.750823  8.834461  30.203617  52.238085  15.874549  -1.307620  2.102443  51.772171  3.759752  12.139233  81.116605
1.244444  0.000000  0.000000  0.000000  -27.816361  8.873570  31.516483  52.351314  15.818704  -1.192974  1.319926  51.721849  3.995874  12.552671  81.522085
1.272727  0.000000  0.000000  0.000000  -27.884722  8.902634  32.759588  52.472874  15.765319  -1.074587  0.579829  51.621899  4.211101  12.955838  81.952378
1.301010  0.000000  0.000000  0.000000  -27.949820  8.922621  33.866470  52.589983  15.726996  -0.967822  -0.057451  51.511070  4.386207  13.308835  82.369623
1.329293  0.000000  0.000000  0.000000  -28.005570  8.934501  34.771705  52.689872  15.715869  -0.889068  -0.531541  51.428096  4.501975  13.571773  82.735971
1.357576  0.000000  0.000000  0.000000  -28.047673  8.939309  35.430054  52.764603  15.739450  -0.848501  -0.805860  51.399043  4.549683  13.718698  83.022923
1.385859  0.000000  0.000000  0.000000  -28.077070  8.938270  35.855671  52.820769  15.790744  -0.837495  -0.913460  51.412904  4.551306  13.764414  83.229344
1.414141  0.000000  0.000000  0.000000  -28.095651  8.932641  36.073102  52.867589  15.860281  -0.843537  -0.900058  51.451927  4.534404  13.731143  83.359078
1.442424  0.000000  0.000000  0.000000  -28.105307  8.923682  36.125315  52.917513  15.923785  -0.865545  -0.811373  51.498358  4.526539  13.641108  83.415969
1.470707  0.000000  0.000000  0.000000  -28.107929  8.912652  35.984386  52.971084  16.013546  -0.858074  -0.693124  51.534445  4.555273  13.516530  83.403862
1.498990  0.000000  0.000000  0.000000  -28.105952  8.900203  35.722980  53.044615  16.079820  -0.843912  -0.580439  51.542334  4.638736  13.377576  83.327454
1.527273  0.000000  0.000000  0.000000  -28.104814  8.883652  35.321062  53.129177  16.136744  -0.815561  -0.450242  51.503606  4.743228  13.233108  83.196139
1.555556  0.000000  0.000000  0.000000  -28.110973  8.859177  34.769619  53.214677  16.186212  -0.781966  -0.259567  51.399651  4.817333  13.088128  83.020916
